<svg version="1.1" id="Layer_1" xmlns="http://www.w3.org/2000/svg" xmlns:xlink="http://www.w3.org/1999/xlink" x="0px" y="0px"
	 width="100%" viewBox="0 0 768 352" enable-background="new 0 0 768 352" xml:space="preserve">
<path fill="#000000" opacity="1.000000" stroke="none" 
	d="
M8.468657,353.000000 
	C7.912003,348.796234 6.794901,344.783844 5.657256,340.786072 
	C4.779104,337.700195 5.805583,336.369446 9.012902,335.645355 
	C57.489689,324.700928 106.003418,313.904419 154.336319,302.352844 
	C162.985031,300.285828 170.424240,303.027252 178.191559,304.367096 
	C205.357193,309.053162 232.396652,314.470398 259.487518,319.591461 
	C260.604462,319.802612 261.756439,319.828278 262.800201,319.931335 
	C256.087982,303.593781 252.328812,286.510742 247.168427,269.881744 
	C240.069870,247.007065 230.845993,225.193405 218.052658,204.904633 
	C215.291916,200.526382 211.917618,197.316025 207.097397,195.175751 
	C197.769577,191.034027 194.465408,183.567307 196.392853,173.601089 
	C201.867599,145.292740 210.121429,117.704102 218.076431,90.052055 
	C222.291672,75.399681 238.425339,67.548920 252.835663,72.252785 
	C262.871643,75.528748 269.514618,85.932953 268.108124,97.012047 
	C267.409241,102.517387 265.943268,107.951912 263.461609,114.499428 
	C260.547516,105.882835 260.119385,98.228958 258.732330,90.780388 
	C257.223572,82.678299 251.010712,77.941391 242.111282,78.173477 
	C233.776352,78.390854 227.285126,83.751465 226.870163,91.703987 
	C226.631561,96.276810 227.636551,100.956482 228.411179,105.532288 
	C230.665131,118.846687 233.903229,131.913071 238.651642,144.585464 
	C240.530884,149.600616 243.402023,153.817032 248.164124,156.365555 
	C250.883575,157.820953 251.248703,159.749588 250.014816,162.106094 
	C244.864914,171.941452 246.870621,180.794037 251.995056,190.270386 
	C271.358887,226.078873 283.419373,264.682800 294.197937,303.739197 
	C296.655945,312.645813 293.040649,318.816559 285.273956,324.286957 
	C298.863190,326.863556 311.531342,329.266663 324.200745,331.663177 
	C324.690460,331.755829 325.197876,331.754974 325.687561,331.847717 
	C337.730072,334.127899 337.601837,334.056824 343.790039,323.095734 
	C369.997162,276.675415 396.400574,230.365295 422.435303,183.848724 
	C426.796234,176.056931 430.242950,167.763107 435.115326,160.192429 
	C437.270294,156.844070 438.868286,156.516235 442.204285,158.568863 
	C478.929443,181.165695 515.742554,203.619461 552.529663,226.115570 
	C558.778870,229.937057 565.126953,233.611465 571.218079,237.670898 
	C574.543701,239.887253 576.890747,239.739807 579.961609,237.046143 
	C615.407288,205.953873 650.965393,174.989594 686.494995,143.992981 
	C705.954285,127.016350 725.452087,110.083443 744.834839,93.019897 
	C747.452698,90.715347 749.182129,90.726791 751.375000,93.403381 
	C754.645325,97.395248 758.055237,101.286835 761.610718,105.026161 
	C763.944763,107.480881 763.420471,109.030785 761.027161,111.104828 
	C738.747192,130.412567 716.554626,149.821259 694.336182,169.199997 
	C666.721558,193.285248 639.106506,217.369995 611.491333,241.454590 
	C604.336548,247.694626 597.217834,253.976700 590.005493,260.149536 
	C587.424316,262.358765 585.270081,264.885040 583.797424,267.890228 
	C582.151001,271.250092 580.308289,271.533783 577.141113,269.573273 
	C555.907959,256.429352 534.582642,243.434158 513.277100,230.407257 
	C491.973572,217.381561 470.659515,204.373123 449.341492,191.371140 
	C448.786896,191.032898 448.133240,190.857056 447.331116,190.524841 
	C444.750580,192.562378 443.696716,195.638458 442.182831,198.308167 
	C413.674805,248.582336 385.236176,298.895905 356.792725,349.206696 
	C356.220947,350.218048 355.765167,351.294983 355.127625,352.670654 
	C338.312439,353.000000 321.624878,353.000000 304.167358,352.784668 
	C302.462189,352.229004 301.553070,351.749420 300.587952,351.568329 
	C258.119263,343.600769 215.656448,335.600677 173.158478,327.791992 
	C168.019196,326.847687 162.954697,325.161591 157.432205,326.445862 
	C124.083214,334.201111 90.673065,341.693268 57.319389,349.428741 
	C53.175117,350.389893 48.713192,350.474884 45.000000,353.000000 
	C32.979103,353.000000 20.958210,353.000000 8.468657,353.000000 
z"/>
<path fill="#000000" opacity="1.000000" stroke="none" 
	d="
M218.230804,211.844696 
	C222.292572,216.575226 221.766556,220.843506 218.808105,225.717133 
	C214.147232,233.395264 209.905823,241.343719 205.796417,249.336868 
	C200.839783,258.977936 193.403259,264.089722 182.430664,265.664276 
	C162.187134,268.569244 141.917374,271.219543 121.616417,273.644989 
	C110.401108,274.984924 101.802628,267.063110 102.711540,256.545288 
	C103.341652,249.253601 109.529686,243.911728 118.731194,242.722702 
	C137.021027,240.359253 155.302414,237.925949 173.609543,235.704819 
	C176.815033,235.315903 178.232681,233.427750 179.428207,230.965851 
	C184.737076,220.033463 190.028625,209.092636 195.317322,198.150482 
	C196.030716,196.674515 196.383621,194.961197 198.192581,194.073654 
	C206.750381,197.622818 214.161880,202.548813 218.230804,211.844696 
z"/>
<path fill="#000000" opacity="1.000000" stroke="none" 
	d="
M248.997711,82.713821 
	C254.625061,85.439583 255.518417,90.507355 256.134735,95.461494 
	C257.514893,106.555740 260.069611,117.353912 263.209381,128.065002 
	C264.539917,132.603943 266.793671,135.562729 271.491577,136.975327 
	C284.230133,140.805634 296.880676,144.928696 309.568115,148.929230 
	C310.520416,149.229507 311.496307,149.454926 312.448425,149.755676 
	C320.056305,152.158707 324.184753,157.653412 322.740631,163.437973 
	C321.001709,170.403336 314.155426,174.406448 306.199036,172.287827 
	C295.277557,169.379654 284.486542,165.962265 273.703857,162.559464 
	C267.205139,160.508621 260.847534,158.015060 254.391602,155.823242 
	C247.692093,153.548706 243.834702,148.789688 241.482819,142.275238 
	C235.804642,126.547188 232.298492,110.327400 230.171387,93.795563 
	C228.985794,84.581223 238.857559,78.662552 248.997711,82.713821 
z"/>
<path fill="#000000" opacity="1.000000" stroke="none" 
	d="
M285.917297,24.029793 
	C293.789673,31.454800 297.403137,40.034843 294.208984,50.362312 
	C290.735168,61.593872 282.451721,67.839165 271.230438,70.139534 
	C258.493988,72.750526 244.863708,67.355263 238.671341,57.662766 
	C227.742569,40.556698 239.543381,18.336391 260.409180,16.735643 
	C269.676910,16.024656 278.296875,17.641890 285.917297,24.029793 
z"/>
<path fill="#000000" opacity="1.000000" stroke="none" 
	d="
M193.509109,145.456741 
	C192.621933,151.984100 191.969330,158.108948 190.938828,164.169525 
	C189.751175,171.154495 183.772263,175.638199 176.965775,175.008865 
	C169.622116,174.329865 165.390213,169.701965 165.712219,161.877228 
	C166.441132,144.164398 170.181839,126.960777 175.160004,110.004875 
	C175.831955,107.716187 177.193649,105.742203 179.124313,104.360352 
	C189.636551,96.836365 201.828964,92.869049 213.429581,87.465363 
	C215.067871,90.716187 213.544449,93.014618 212.957275,95.316559 
	C211.478073,101.115746 209.742233,106.849068 208.148895,112.619743 
	C207.548172,114.795456 206.691086,116.677086 204.299271,117.426270 
	C200.338837,118.666824 198.618820,121.731964 197.804626,125.529083 
	C196.410385,132.031235 194.987518,138.527237 193.509109,145.456741 
z"/>
</svg>